STARTFONT 2.3
FONT -FontForge-Henny Penny-Book-R-Normal--14-140-72-72-P-79-ISO10646-1
SIZE 14 72 72  2
FONTBOUNDINGBOX 20 25 -2 -9
COMMENT "Generated by fontforge, http://fontforge.sourceforge.net"
COMMENT "Copyright (c) 2012, Brownfox (gayaneh.b@gmail.com), with Reserved Font Name "Henny Penny""
STARTPROPERTIES 40
FOUNDRY "FontForge"
FAMILY_NAME "Henny Penny"
WEIGHT_NAME "Book"
SLANT "R"
SETWIDTH_NAME "Normal"
ADD_STYLE_NAME ""
PIXEL_SIZE 14
POINT_SIZE 140
RESOLUTION_X 72
RESOLUTION_Y 72
SPACING "P"
AVERAGE_WIDTH 79
CHARSET_REGISTRY "ISO10646"
CHARSET_ENCODING "1"
FONTNAME_REGISTRY ""
CHARSET_COLLECTIONS "ISO10646-1"
BITS_PER_PIXEL 2
FONT_NAME "HennyPenny-Regular"
FACE_NAME "Henny Penny"
COPYRIGHT "Copyright (c) 2012, Brownfox (gayaneh.b@gmail.com), with Reserved Font Name "Henny Penny""
FONT_VERSION "1.001"
FONT_ASCENT 11
FONT_DESCENT 3
UNDERLINE_POSITION -1
UNDERLINE_THICKNESS 1
X_HEIGHT 8
CAP_HEIGHT 10
RAW_ASCENT 799
RAW_DESCENT 200
NORM_SPACE 4
RELATIVE_WEIGHT 40
RELATIVE_SETWIDTH 50
SUPERSCRIPT_X 0
SUPERSCRIPT_Y 4
SUPERSCRIPT_SIZE 8
SUBSCRIPT_X 0
SUBSCRIPT_Y 1
SUBSCRIPT_SIZE 8
AVG_LOWERCASE_WIDTH 70
AVG_UPPERCASE_WIDTH 99
ENDPROPERTIES
CHARS 233
STARTCHAR space
ENCODING 32
SWIDTH 270 0
DWIDTH 4 0
BBX 1 1 0 0
BITMAP
00
ENDCHAR
STARTCHAR exclam
ENCODING 33
SWIDTH 249 0
DWIDTH 3 0
BBX 3 14 0 -1
BITMAP
34
78
38
38
38
28
24
24
10
10
00
00
34
34
ENDCHAR
STARTCHAR quotedbl
ENCODING 34
SWIDTH 292 0
DWIDTH 4 0
BBX 4 5 0 6
BITMAP
69
69
29
25
14
ENDCHAR
STARTCHAR numbersign
ENCODING 35
SWIDTH 1030 0
DWIDTH 14 0
BBX 13 15 1 -4
BITMAP
00040000
00044000
00144000
00214000
55A75540
00850000
00880000
02595400
AB600000
05500000
08800000
14800000
12000000
02000000
05000000
ENDCHAR
STARTCHAR dollar
ENCODING 36
SWIDTH 799 0
DWIDTH 11 0
BBX 9 15 1 -3
BITMAP
001440
01FF40
075700
0B5200
079000
03E000
01F800
00BD00
105E00
204B00
350A00
6E1D00
47E400
010000
010000
ENDCHAR
STARTCHAR percent
ENCODING 37
SWIDTH 789 0
DWIDTH 11 0
BBX 11 13 0 0
BITMAP
1F8010
34D080
709140
389600
1F8800
002000
005000
0087E0
021C34
092828
141C34
200BE0
400000
ENDCHAR
STARTCHAR ampersand
ENCODING 38
SWIDTH 773 0
DWIDTH 11 0
BBX 11 13 0 -1
BITMAP
02E000
092400
082000
0C9000
0F8090
0F06D0
2F5490
76C080
74E080
747940
3D1E04
1BEBE0
0001D0
ENDCHAR
STARTCHAR quotesingle
ENCODING 39
SWIDTH 174 0
DWIDTH 2 0
BBX 2 4 0 7
BITMAP
60
60
20
10
ENDCHAR
STARTCHAR parenleft
ENCODING 40
SWIDTH 431 0
DWIDTH 6 0
BBX 6 20 0 -6
BITMAP
0100
0800
1400
2400
3000
6000
A000
A000
A000
A000
A000
B000
7400
3400
2C00
1D00
0A00
0240
0090
0010
ENDCHAR
STARTCHAR parenright
ENCODING 41
SWIDTH 443 0
DWIDTH 6 0
BBX 6 14 0 -3
BITMAP
1000
1D00
0740
02C0
00E0
00B0
00B0
00B0
00B0
00A0
01D0
0280
0A00
6400
ENDCHAR
STARTCHAR asterisk
ENCODING 42
SWIDTH 490 0
DWIDTH 7 0
BBX 5 6 1 7
BITMAP
0800
0C80
4980
A900
2640
11C0
ENDCHAR
STARTCHAR plus
ENCODING 43
SWIDTH 440 0
DWIDTH 6 0
BBX 6 7 0 1
BITMAP
0100
0100
0200
7F90
0200
0200
0200
ENDCHAR
STARTCHAR comma
ENCODING 44
SWIDTH 251 0
DWIDTH 4 0
BBX 3 5 0 -3
BITMAP
38
78
28
14
10
ENDCHAR
STARTCHAR hyphen
ENCODING 45
SWIDTH 436 0
DWIDTH 6 0
BBX 5 1 1 3
BITMAP
BF40
ENDCHAR
STARTCHAR period
ENCODING 46
SWIDTH 238 0
DWIDTH 3 0
BBX 2 2 1 0
BITMAP
D0
D0
ENDCHAR
STARTCHAR slash
ENCODING 47
SWIDTH 690 0
DWIDTH 10 0
BBX 10 13 0 0
BITMAP
000010
000080
000240
000500
000800
002000
005000
018000
020000
080000
140000
200000
800000
ENDCHAR
STARTCHAR zero
ENCODING 48
SWIDTH 723 0
DWIDTH 10 0
BBX 10 10 0 1
BITMAP
06F900
2D0780
7401D0
B000E0
A000B0
B000B0
B000A0
7800D0
1E0780
06F900
ENDCHAR
STARTCHAR one
ENCODING 49
SWIDTH 505 0
DWIDTH 7 0
BBX 7 13 0 -1
BITMAP
0200
0B00
2F00
9740
0340
0380
0280
02C0
02D0
02E0
07F8
2D40
1000
ENDCHAR
STARTCHAR two
ENCODING 50
SWIDTH 534 0
DWIDTH 7 0
BBX 7 13 0 -1
BITMAP
1F90
61F0
40B4
4074
40B0
00D0
0180
0600
1800
7000
1E44
02F8
0070
ENDCHAR
STARTCHAR three
ENCODING 51
SWIDTH 511 0
DWIDTH 7 0
BBX 7 12 0 -1
BITMAP
1000
7FE0
6050
4040
0100
0290
00B4
402C
402C
802C
6478
1BE0
ENDCHAR
STARTCHAR four
ENCODING 52
SWIDTH 712 0
DWIDTH 10 0
BBX 10 14 0 -2
BITMAP
001000
002000
00A000
017000
047000
203400
A03800
692800
01FD50
001F80
000D00
000E00
006F80
000060
ENDCHAR
STARTCHAR five
ENCODING 53
SWIDTH 757 0
DWIDTH 11 0
BBX 11 13 0 -1
BITMAP
002904
002FB0
0042E0
014040
029000
007D00
400B40
400740
400780
800740
800B00
242D00
1BE400
ENDCHAR
STARTCHAR six
ENCODING 54
SWIDTH 598 0
DWIDTH 8 0
BBX 9 11 0 0
BITMAP
06F800
1D0600
380100
76F400
BD1E00
B40700
B00340
B00340
740700
2D1D00
06F400
ENDCHAR
STARTCHAR seven
ENCODING 55
SWIDTH 507 0
DWIDTH 7 0
BBX 7 11 0 0
BITMAP
4014
FFF8
91B0
4010
4080
0180
0240
0700
0A00
0E00
1D00
ENDCHAR
STARTCHAR eight
ENCODING 56
SWIDTH 476 0
DWIDTH 7 0
BBX 7 12 0 -1
BITMAP
1B80
3860
7810
7C10
3F40
0FD0
25F0
9034
C028
C024
A470
2F90
ENDCHAR
STARTCHAR nine
ENCODING 57
SWIDTH 601 0
DWIDTH 8 0
BBX 9 11 0 0
BITMAP
1BE000
746D00
A00E00
A00B00
B00B40
781F40
1BEF00
000F00
001D00
607800
1FD000
ENDCHAR
STARTCHAR colon
ENCODING 58
SWIDTH 246 0
DWIDTH 3 0
BBX 2 7 1 0
BITMAP
D0
D0
00
00
00
E0
E0
ENDCHAR
STARTCHAR semicolon
ENCODING 59
SWIDTH 266 0
DWIDTH 4 0
BBX 2 9 1 -3
BITMAP
A0
A0
00
00
00
E0
E0
50
40
ENDCHAR
STARTCHAR less
ENCODING 60
SWIDTH 522 0
DWIDTH 7 0
BBX 6 7 1 1
BITMAP
0040
0140
1900
9000
A000
0A00
0090
ENDCHAR
STARTCHAR equal
ENCODING 61
SWIDTH 655 0
DWIDTH 9 0
BBX 9 3 0 3
BITMAP
01AF40
154000
7FE900
ENDCHAR
STARTCHAR greater
ENCODING 62
SWIDTH 533 0
DWIDTH 7 0
BBX 6 7 1 1
BITMAP
4000
2400
0600
0090
0080
0500
2400
ENDCHAR
STARTCHAR question
ENCODING 63
SWIDTH 564 0
DWIDTH 8 0
BBX 8 14 0 -1
BITMAP
0BE4
347C
701D
B41D
BC2D
7878
01D0
0600
0400
1000
1D00
0000
0D00
0900
ENDCHAR
STARTCHAR at
ENCODING 64
SWIDTH 898 0
DWIDTH 13 0
BBX 12 14 0 -4
BITMAP
006F90
029068
090009
140002
20BEC2
1287C1
5342C1
5701C1
5742C2
1386D5
21BC78
180B00
0A4700
01FD00
ENDCHAR
STARTCHAR A
ENCODING 65
SWIDTH 784 0
DWIDTH 11 0
BBX 11 13 0 -2
BITMAP
006000
0BF400
00AC00
005D00
011E00
020F00
07EF40
091B80
1803C0
F802D0
1901F0
0001FC
000A40
ENDCHAR
STARTCHAR B
ENCODING 66
SWIDTH 685 0
DWIDTH 10 0
BBX 10 14 0 -2
BITMAP
56FD00
1D1F00
0D0B40
0A0B00
0A0900
0A6400
0BFE00
0A07C0
0B02D0
0B01D0
0B02D0
0B4780
1FFE00
500000
ENDCHAR
STARTCHAR C
ENCODING 67
SWIDTH 742 0
DWIDTH 10 0
BBX 11 13 0 -1
BITMAP
000010
000050
06FED0
1E42D0
780060
B40010
F40000
F40000
B40004
B80010
7D0020
1F4190
06FE40
ENDCHAR
STARTCHAR D
ENCODING 68
SWIDTH 726 0
DWIDTH 10 0
BBX 10 12 0 -3
BITMAP
6AFE40
2E07D0
0D01E0
0D00F0
0D00F0
0D00E0
0E01D0
0F4780
0FF900
2E4000
600000
400000
ENDCHAR
STARTCHAR E
ENCODING 69
SWIDTH 557 0
DWIDTH 8 0
BBX 8 13 0 -2
BITMAP
55AC
7D04
2D00
1D00
1D10
1FD0
0D50
0D00
0E00
0A01
0A06
BFFE
0054
ENDCHAR
STARTCHAR F
ENCODING 70
SWIDTH 533 0
DWIDTH 7 0
BBX 8 12 0 -1
BITMAP
005A
6E06
1E05
0E04
0E10
0A50
0BD0
0A50
0710
0700
0B00
BAC0
ENDCHAR
STARTCHAR G
ENCODING 71
SWIDTH 750 0
DWIDTH 11 0
BBX 11 10 0 0
BITMAP
000014
06F820
1E02D0
7800C0
B40080
F00160
F43FD0
B801C0
3D06D0
0BF900
ENDCHAR
STARTCHAR H
ENCODING 72
SWIDTH 743 0
DWIDTH 10 0
BBX 11 15 0 -3
BITMAP
500000
1FE000
0E0064
0D1FD0
0D02C0
0D01C0
0D02C0
0FFFC0
0E01C0
0E01C0
0E01C0
1E01C0
1E0FF0
BF0000
400000
ENDCHAR
STARTCHAR I
ENCODING 73
SWIDTH 438 0
DWIDTH 6 0
BBX 8 14 -1 -3
BITMAP
2ABE
0BE0
03C0
0380
0380
0340
0340
0340
0340
0300
0300
0340
1FE0
6400
ENDCHAR
STARTCHAR J
ENCODING 74
SWIDTH 628 0
DWIDTH 9 0
BBX 10 16 0 -4
BITMAP
0006D0
02FE00
007D00
002C00
002C00
001C00
001C00
001C00
001C00
001800
002800
002400
7C3000
FCA000
82C000
7E0000
ENDCHAR
STARTCHAR K
ENCODING 75
SWIDTH 866 0
DWIDTH 12 0
BBX 13 13 0 -1
BITMAP
01490000
BE0BF000
2D060000
1D140000
1D600000
1EF00000
0EB40000
0D3C0200
0D1E0140
0D079140
0E01BE00
2F400000
00400000
ENDCHAR
STARTCHAR L
ENCODING 76
SWIDTH 660 0
DWIDTH 9 0
BBX 9 11 0 0
BITMAP
500000
6FF400
0B8000
0B4000
0B4000
0B4000
070100
0B0140
0B4280
6FFFC0
140000
ENDCHAR
STARTCHAR M
ENCODING 77
SWIDTH 1089 0
DWIDTH 15 0
BBX 16 11 0 -1
BITMAP
000001F4
05400380
03B00740
01680380
009E0280
008B51C0
0043C1D0
004240E0
000000F4
A00001FE
B8000500
ENDCHAR
STARTCHAR N
ENCODING 78
SWIDTH 799 0
DWIDTH 11 0
BBX 11 14 0 -3
BITMAP
000004
FF03F8
1FC0A0
0BF050
08F850
047E50
041FD0
040BD0
0402C0
040080
080000
1C0000
BE4000
014000
ENDCHAR
STARTCHAR O
ENCODING 79
SWIDTH 747 0
DWIDTH 10 0
BBX 11 10 0 0
BITMAP
06F900
2D0BC0
7401E0
B000F0
F000B4
F000B4
B000B0
7800E0
2E06C0
06FE00
ENDCHAR
STARTCHAR P
ENCODING 80
SWIDTH 623 0
DWIDTH 9 0
BBX 9 12 0 -1
BITMAP
FFFE00
0B8780
070380
070380
070B40
07F900
070000
070000
0B0000
0B4000
0F4000
6FE400
ENDCHAR
STARTCHAR Q
ENCODING 81
SWIDTH 804 0
DWIDTH 11 0
BBX 16 16 0 -6
BITMAP
02FE4000
1D07E000
3400B400
B0007800
E0003C00
E0002C00
B00B6C00
B421F800
7C10B400
1F51F000
06FE7800
00003C00
00002D01
00001E01
00000F85
000002F8
ENDCHAR
STARTCHAR R
ENCODING 82
SWIDTH 869 0
DWIDTH 12 0
BBX 13 11 0 -1
BITMAP
FFFD0000
1F4B0000
0E074000
0A074000
0A1F0000
0BFC0000
063C0000
061D0040
0B0F0040
7F87D140
0040BE00
ENDCHAR
STARTCHAR S
ENCODING 83
SWIDTH 517 0
DWIDTH 7 0
BBX 8 14 0 -2
BITMAP
0004
06D4
0D18
1D04
0D00
0B40
03C0
00E0
0078
402C
802D
A01D
A438
47E0
ENDCHAR
STARTCHAR T
ENCODING 84
SWIDTH 659 0
DWIDTH 9 0
BBX 10 15 0 -3
BITMAP
A50000
BFFFE0
5034A0
103410
103410
007400
007400
007400
007400
007400
007400
00B800
01FF80
064000
040000
ENDCHAR
STARTCHAR U
ENCODING 85
SWIDTH 690 0
DWIDTH 10 0
BBX 11 11 0 1
BITMAP
001000
16E000
FF4000
2F1FE4
1E0280
1E0080
1E0040
0F0040
0F0140
078200
01F900
ENDCHAR
STARTCHAR V
ENCODING 86
SWIDTH 798 0
DWIDTH 11 0
BBX 13 11 0 0
BITMAP
00600000
BF800140
0B801A00
02C2F800
01E03000
00B01000
00784000
003D4000
001F0000
000E0000
00050000
ENDCHAR
STARTCHAR W
ENCODING 87
SWIDTH 1120 0
DWIDTH 16 0
BBX 18 12 0 -1
BITMAP
0000005400
0000002FD0
0200000D00
1D00001800
6E02002000
0F07802000
0745D04000
0790F08000
03E0BA0000
01C03E0000
00802C0000
0000180000
ENDCHAR
STARTCHAR X
ENCODING 88
SWIDTH 868 0
DWIDTH 12 0
BBX 12 12 0 -1
BITMAP
005400
FFF040
07E02D
00F420
003C40
001F40
001F40
005280
0280D0
7F40B0
0187FD
000001
ENDCHAR
STARTCHAR Y
ENCODING 89
SWIDTH 796 0
DWIDTH 11 0
BBX 13 14 0 -2
BITMAP
01805000
BF407F40
1F002000
07C04000
01F54000
007D0000
002C0000
001C0000
001C0000
001C0000
002D0000
003D0000
02FF0000
00054000
ENDCHAR
STARTCHAR Z
ENCODING 90
SWIDTH 627 0
DWIDTH 9 0
BBX 9 12 0 -2
BITMAP
100400
7FF400
60F000
41E000
01D000
02C000
034100
070040
0A0180
0D0280
1DAFC0
2A5000
ENDCHAR
STARTCHAR bracketleft
ENCODING 91
SWIDTH 344 0
DWIDTH 5 0
BBX 5 14 0 -3
BITMAP
2E40
3800
3400
7000
7000
7000
B000
B000
B000
B000
B000
F000
B000
7F40
ENDCHAR
STARTCHAR backslash
ENCODING 92
SWIDTH 347 0
DWIDTH 5 0
BBX 5 15 0 -2
BITMAP
8000
4000
5000
2000
2000
1400
0400
0800
0800
0500
0200
0200
0140
0040
0040
ENDCHAR
STARTCHAR bracketright
ENCODING 93
SWIDTH 334 0
DWIDTH 5 0
BBX 5 12 0 -3
BITMAP
2E00
0A00
0B00
0B00
0B00
0B40
0B40
0740
0740
0B80
1E00
5000
ENDCHAR
STARTCHAR asciicircum
ENCODING 94
SWIDTH 658 0
DWIDTH 9 0
BBX 9 3 0 8
BITMAP
018000
1BF900
781B40
ENDCHAR
STARTCHAR underscore
ENCODING 95
SWIDTH 678 0
DWIDTH 10 0
BBX 8 2 1 -5
BITMAP
5ABE
5400
ENDCHAR
STARTCHAR grave
ENCODING 96
SWIDTH 278 0
DWIDTH 4 0
BBX 3 3 0 11
BITMAP
60
28
08
ENDCHAR
STARTCHAR a
ENCODING 97
SWIDTH 527 0
DWIDTH 7 0
BBX 8 10 0 -1
BITMAP
1F40
21D0
34E0
28A0
00B0
2FF0
A0B4
A0B4
7E39
002D
ENDCHAR
STARTCHAR b
ENCODING 98
SWIDTH 582 0
DWIDTH 8 0
BBX 9 16 -1 0
BITMAP
040000
1D0000
FD0000
1D0000
0D0000
0D0000
0D0000
0D0000
090000
0A7E00
0A4780
0A02C0
0B0280
0B4780
0FFE00
390000
ENDCHAR
STARTCHAR c
ENCODING 99
SWIDTH 437 0
DWIDTH 6 0
BBX 6 8 0 1
BITMAP
0B80
22E0
61D0
9000
9010
A020
7460
1F80
ENDCHAR
STARTCHAR d
ENCODING 100
SWIDTH 523 0
DWIDTH 7 0
BBX 8 13 0 1
BITMAP
0064
02F4
0074
0074
0074
0034
0034
0034
2FF4
B430
B030
B474
2FFD
ENDCHAR
STARTCHAR e
ENCODING 101
SWIDTH 434 0
DWIDTH 6 0
BBX 6 7 0 1
BITMAP
1BD0
34A0
B0A0
BF80
B010
7820
1B90
ENDCHAR
STARTCHAR f
ENCODING 102
SWIDTH 299 0
DWIDTH 4 0
BBX 8 18 -1 -2
BITMAP
00B8
014A
021E
0638
0600
0A10
7FD0
0A00
0A00
0A00
0A00
0B00
0B00
0B00
0B00
0B40
1FE0
2400
ENDCHAR
STARTCHAR g
ENCODING 103
SWIDTH 567 0
DWIDTH 8 0
BBX 9 13 0 -5
BITMAP
002E00
1FD740
787B00
743400
787400
1FD000
240000
1FE400
246D00
E00D00
E00D00
F42800
6F9000
ENDCHAR
STARTCHAR h
ENCODING 104
SWIDTH 566 0
DWIDTH 8 0
BBX 9 15 -1 0
BITMAP
064000
3F0000
070000
070000
070000
060000
060000
060000
060000
0AB800
0B4E00
0A0A00
0D0A00
1E0E00
7F6F80
ENDCHAR
STARTCHAR i
ENCODING 105
SWIDTH 301 0
DWIDTH 4 0
BBX 4 11 0 1
BITMAP
18
1C
00
BC
2C
2C
2C
28
28
28
BF
ENDCHAR
STARTCHAR j
ENCODING 106
SWIDTH 367 0
DWIDTH 5 0
BBX 7 16 -2 -7
BITMAP
00A0
00A0
0010
07F4
00B8
0078
0038
0028
001C
0018
0018
2D18
7D24
9030
60A0
2F80
ENDCHAR
STARTCHAR k
ENCODING 107
SWIDTH 567 0
DWIDTH 8 0
BBX 9 16 -1 -2
BITMAP
1A0000
FE0000
0A0000
0A0000
0A0000
0A0000
0A5000
062F00
062400
069000
07D040
076040
073880
071F40
0B4000
2EF000
ENDCHAR
STARTCHAR l
ENCODING 108
SWIDTH 354 0
DWIDTH 5 0
BBX 6 13 -1 0
BITMAP
0200
1F00
AF00
0B00
0700
0700
0740
0340
0340
0340
0340
0380
0FF0
ENDCHAR
STARTCHAR m
ENCODING 109
SWIDTH 708 0
DWIDTH 10 0
BBX 10 7 0 1
BITMAP
040000
7ADB80
1DB2C0
1C71C0
1DF6C0
7E02C0
000050
ENDCHAR
STARTCHAR n
ENCODING 110
SWIDTH 584 0
DWIDTH 8 0
BBX 8 10 0 -1
BITMAP
0400
78B8
291D
1D0E
0D0E
0D0D
090D
090D
2FBD
0006
ENDCHAR
STARTCHAR o
ENCODING 111
SWIDTH 503 0
DWIDTH 7 0
BBX 7 7 0 1
BITMAP
1B90
3874
B038
B028
B428
3874
1B90
ENDCHAR
STARTCHAR p
ENCODING 112
SWIDTH 509 0
DWIDTH 7 0
BBX 7 14 0 -6
BITMAP
1800
BDF4
1D38
1C2C
1C28
1D34
1FE0
1C00
1C00
1C00
1C00
2D00
7F40
0100
ENDCHAR
STARTCHAR q
ENCODING 113
SWIDTH 505 0
DWIDTH 7 0
BBX 7 13 0 -6
BITMAP
2FB0
B4A0
B0A0
B4A0
2EA0
00A0
00A0
00A0
00A0
00A0
00A0
07F4
0058
ENDCHAR
STARTCHAR r
ENCODING 114
SWIDTH 414 0
DWIDTH 6 0
BBX 7 10 0 0
BITMAP
00B4
1558
B974
2D00
1C00
1D00
1D00
0E00
1F80
6400
ENDCHAR
STARTCHAR s
ENCODING 115
SWIDTH 482 0
DWIDTH 7 0
BBX 7 10 0 -1
BITMAP
07E0
0D20
0C10
0600
02C0
04B0
2038
7028
5474
07E0
ENDCHAR
STARTCHAR t
ENCODING 116
SWIDTH 434 0
DWIDTH 6 0
BBX 6 11 0 0
BITMAP
0200
0300
0A00
BFC0
1D00
2C00
3800
3800
3860
2D20
0BD0
ENDCHAR
STARTCHAR u
ENCODING 117
SWIDTH 744 0
DWIDTH 10 0
BBX 11 7 0 0
BITMAP
183F00
BC0740
0D0340
0E0380
0A06F4
074540
02E000
ENDCHAR
STARTCHAR v
ENCODING 118
SWIDTH 600 0
DWIDTH 8 0
BBX 9 9 0 0
BITMAP
060000
6D0000
0E2F40
0B0800
074400
028400
01E000
00E000
005000
ENDCHAR
STARTCHAR w
ENCODING 119
SWIDTH 745 0
DWIDTH 10 0
BBX 11 7 0 0
BITMAP
000064
191490
BD3880
2E6D40
0F8B40
0B4600
020000
ENDCHAR
STARTCHAR x
ENCODING 120
SWIDTH 548 0
DWIDTH 8 0
BBX 8 9 0 0
BITMAP
0680
FE00
1E3E
0B60
03C0
02C0
09E0
68BD
0240
ENDCHAR
STARTCHAR y
ENCODING 121
SWIDTH 659 0
DWIDTH 9 0
BBX 9 13 0 -6
BITMAP
020040
1D2FC0
BC0B40
2C0740
1D0740
0E0B00
07E700
000600
000900
0B4800
175800
147000
0B9000
ENDCHAR
STARTCHAR z
ENCODING 122
SWIDTH 460 0
DWIDTH 6 0
BBX 7 8 0 -1
BITMAP
BFD0
81C0
4240
0700
0D04
2C14
7FF4
5000
ENDCHAR
STARTCHAR braceleft
ENCODING 123
SWIDTH 460 0
DWIDTH 6 0
BBX 7 17 0 -4
BITMAP
02E0
0700
0A00
0700
0740
0740
0740
1E00
6400
0900
0600
0700
0700
0700
0700
0744
02E0
ENDCHAR
STARTCHAR bar
ENCODING 124
SWIDTH 368 0
DWIDTH 5 0
BBX 1 15 2 -3
BITMAP
40
40
40
40
40
40
40
40
40
40
40
40
40
40
40
ENDCHAR
STARTCHAR braceright
ENCODING 125
SWIDTH 476 0
DWIDTH 7 0
BBX 7 15 0 -4
BITMAP
2E00
8B40
0780
0380
0380
0190
0020
00A0
00A0
0070
0034
0034
0034
00A0
0780
ENDCHAR
STARTCHAR asciitilde
ENCODING 126
SWIDTH 733 0
DWIDTH 10 0
BBX 9 3 1 2
BITMAP
000040
7E4200
41BD00
ENDCHAR
STARTCHAR nonbreakingspace
ENCODING 160
SWIDTH 270 0
DWIDTH 4 0
BBX 1 1 0 0
BITMAP
00
ENDCHAR
STARTCHAR exclamdown
ENCODING 161
SWIDTH 247 0
DWIDTH 3 0
BBX 3 15 0 -2
BITMAP
34
34
00
00
20
20
24
24
24
38
38
38
38
78
34
ENDCHAR
STARTCHAR cent
ENCODING 162
SWIDTH 799 0
DWIDTH 11 0
BBX 7 12 2 -4
BITMAP
0400
0BE0
2D24
7128
B134
B100
B044
3954
1BD0
0040
0010
0010
ENDCHAR
STARTCHAR sterling
ENCODING 163
SWIDTH 799 0
DWIDTH 11 0
BBX 8 13 2 -1
BITMAP
07E0
1D34
2878
38B4
3800
3C00
6E40
4F00
0B40
0740
0341
7F81
BDBD
ENDCHAR
STARTCHAR currency
ENCODING 164
SWIDTH 732 0
DWIDTH 10 0
BBX 8 9 1 0
BITMAP
0020
9BF0
6418
8008
8008
9064
3FA4
2006
5000
ENDCHAR
STARTCHAR yen
ENCODING 165
SWIDTH 799 0
DWIDTH 11 0
BBX 11 15 0 -2
BITMAP
005000
7FC068
0BC3D0
02D080
01F100
00B900
007D00
002C00
03FFF4
01BFC0
002C00
002C00
003D00
01BF80
029000
ENDCHAR
STARTCHAR brokenbar
ENCODING 166
SWIDTH 341 0
DWIDTH 5 0
BBX 1 17 2 -4
BITMAP
40
40
40
40
40
40
00
00
40
40
40
40
40
80
80
80
40
ENDCHAR
STARTCHAR section
ENCODING 167
SWIDTH 546 0
DWIDTH 8 0
BBX 7 16 0 -4
BITMAP
07E0
1D28
2828
2D00
1F40
2BE0
30B4
741C
3D08
1F94
02E0
0074
0018
0008
0A14
0BD0
ENDCHAR
STARTCHAR dieresis
ENCODING 168
SWIDTH 393 0
DWIDTH 6 0
BBX 4 2 1 9
BITMAP
60
69
ENDCHAR
STARTCHAR copyright
ENCODING 169
SWIDTH 1023 0
DWIDTH 14 0
BBX 14 13 0 -2
BITMAP
006FA400
02901E00
09000280
246F0080
20E10050
11C04060
51C04060
50E04050
206E0090
20000080
18000340
07406D00
01BF9000
ENDCHAR
STARTCHAR ordfeminine
ENCODING 170
SWIDTH 558 0
DWIDTH 8 0
BBX 7 7 0 4
BITMAP
2F40
7180
70C0
1FC0
34C4
31D4
2E78
ENDCHAR
STARTCHAR guillemotleft
ENCODING 171
SWIDTH 608 0
DWIDTH 9 0
BBX 7 12 1 -3
BITMAP
0004
0004
0114
0620
1D60
74E0
F4F0
7C74
1D28
0708
0184
0080
ENDCHAR
STARTCHAR logicalnot
ENCODING 172
SWIDTH 616 0
DWIDTH 9 0
BBX 8 3 0 4
BITMAP
7FAA
0002
0002
ENDCHAR
STARTCHAR uni00AD
ENCODING 173
SWIDTH 436 0
DWIDTH 6 0
BBX 5 1 1 3
BITMAP
BF40
ENDCHAR
STARTCHAR registered
ENCODING 174
SWIDTH 1048 0
DWIDTH 15 0
BBX 14 13 0 -3
BITMAP
006FE400
02901A00
09000080
25FF9050
2070E010
5031D010
503F4010
60374410
20768510
26FEB850
0D000180
07901A00
006FE400
ENDCHAR
STARTCHAR macron
ENCODING 175
SWIDTH 382 0
DWIDTH 5 0
BBX 4 1 1 11
BITMAP
BE
ENDCHAR
STARTCHAR degree
ENCODING 176
SWIDTH 346 0
DWIDTH 5 0
BBX 4 3 0 11
BITMAP
2E
62
2E
ENDCHAR
STARTCHAR plusminus
ENCODING 177
SWIDTH 580 0
DWIDTH 8 0
BBX 8 6 0 2
BITMAP
0040
0180
3FE9
0040
0040
7EA4
ENDCHAR
STARTCHAR twosuperior
ENCODING 178
SWIDTH 365 0
DWIDTH 5 0
BBX 5 8 0 4
BITMAP
1E00
1380
0280
0300
1900
7040
1E00
0500
ENDCHAR
STARTCHAR threesuperior
ENCODING 179
SWIDTH 371 0
DWIDTH 5 0
BBX 5 7 0 5
BITMAP
7D00
0400
0A00
0280
41C0
5280
2E00
ENDCHAR
STARTCHAR acute
ENCODING 180
SWIDTH 234 0
DWIDTH 3 0
BBX 3 3 0 11
BITMAP
14
20
50
ENDCHAR
STARTCHAR mu
ENCODING 181
SWIDTH 634 0
DWIDTH 9 0
BBX 9 12 0 -5
BITMAP
700000
603400
702400
742800
787840
779C40
700740
700000
740000
740000
340000
380000
ENDCHAR
STARTCHAR paragraph
ENCODING 182
SWIDTH 707 0
DWIDTH 10 0
BBX 10 17 0 -5
BITMAP
000580
1AFF00
7F8A00
FF4600
FF4900
BF4900
2F4900
034900
034900
024A00
024A00
028A00
028B00
028B40
028BE0
0B8000
390000
ENDCHAR
STARTCHAR periodcentered
ENCODING 183
SWIDTH 238 0
DWIDTH 3 0
BBX 2 2 1 5
BITMAP
D0
D0
ENDCHAR
STARTCHAR cedilla
ENCODING 184
SWIDTH 332 0
DWIDTH 5 0
BBX 4 5 0 -3
BITMAP
04
08
0A
57
2D
ENDCHAR
STARTCHAR onesuperior
ENCODING 185
SWIDTH 336 0
DWIDTH 5 0
BBX 5 6 0 6
BITMAP
0100
1D00
0900
0900
6E00
1B40
ENDCHAR
STARTCHAR ordmasculine
ENCODING 186
SWIDTH 503 0
DWIDTH 7 0
BBX 7 6 0 5
BITMAP
1F90
60B4
5028
6018
3424
1BD0
ENDCHAR
STARTCHAR guillemotright
ENCODING 187
SWIDTH 778 0
DWIDTH 11 0
BBX 9 13 1 -4
BITMAP
010000
018000
809000
602800
2E4B40
07D780
075E00
0D3400
24A000
60C000
414000
010000
010000
ENDCHAR
STARTCHAR onequarter
ENCODING 188
SWIDTH 876 0
DWIDTH 12 0
BBX 12 13 0 0
BITMAP
000014
010020
1D0080
090140
090600
6E0850
1B6090
0051D0
0081A0
020468
050BFC
140074
2001FF
ENDCHAR
STARTCHAR onehalf
ENCODING 189
SWIDTH 762 0
DWIDTH 11 0
BBX 11 14 0 -1
BITMAP
000014
010020
1D0080
090140
090600
6E0800
1B66D0
005470
008070
0200A0
050140
140900
2002D0
000040
ENDCHAR
STARTCHAR threequarters
ENCODING 190
SWIDTH 922 0
DWIDTH 13 0
BBX 13 13 0 0
BITMAP
00000400
7D001400
04002000
0A008000
02814000
41C21000
52883000
2E247000
00507400
00812600
0207FE00
05002C00
0400BF80
ENDCHAR
STARTCHAR questiondown
ENCODING 191
SWIDTH 571 0
DWIDTH 8 0
BBX 8 13 0 -2
BITMAP
02D0
02D0
0000
0140
0040
0140
0600
2D78
787E
B81E
B80A
7D08
1BE4
ENDCHAR
STARTCHAR Agrave
ENCODING 192
SWIDTH 784 0
DWIDTH 11 0
BBX 11 17 0 -2
BITMAP
090000
070000
014000
000000
006000
0BF400
00AC00
005D00
011E00
020F00
07EF40
091B80
1803C0
F802D0
1901F0
0001FC
000A40
ENDCHAR
STARTCHAR Aacute
ENCODING 193
SWIDTH 784 0
DWIDTH 11 0
BBX 11 18 0 -2
BITMAP
002400
002000
004000
000000
000000
006000
0BF400
00AC00
005D00
011E00
020F00
07EF40
091B80
1803C0
F802D0
1901F0
0001FC
000A40
ENDCHAR
STARTCHAR Acircumflex
ENCODING 194
SWIDTH 784 0
DWIDTH 11 0
BBX 11 17 0 -2
BITMAP
006000
00A900
010700
000000
006000
0BF400
00AC00
005D00
011E00
020F00
07EF40
091B80
1803C0
F802D0
1901F0
0001FC
000A40
ENDCHAR
STARTCHAR Atilde
ENCODING 195
SWIDTH 784 0
DWIDTH 11 0
BBX 11 16 0 -2
BITMAP
029100
047800
000000
006000
0BF400
00AC00
005D00
011E00
020F00
07EF40
091B80
1803C0
F802D0
1901F0
0001FC
000A40
ENDCHAR
STARTCHAR Adieresis
ENCODING 196
SWIDTH 784 0
DWIDTH 11 0
BBX 11 16 0 -2
BITMAP
02CC00
028C00
000000
006000
0BF400
00AC00
005D00
011E00
020F00
07EF40
091B80
1803C0
F802D0
1901F0
0001FC
000A40
ENDCHAR
STARTCHAR Aring
ENCODING 197
SWIDTH 784 0
DWIDTH 11 0
BBX 11 17 0 -2
BITMAP
00B400
014800
014800
00B400
006000
0BF400
00AC00
005D00
011E00
020F00
07EF40
091B80
1803C0
F802D0
1901F0
0001FC
000A40
ENDCHAR
STARTCHAR AE
ENCODING 198
SWIDTH 1172 0
DWIDTH 16 0
BBX 17 14 0 -2
BITMAP
0000005000
00005BE000
002FF52000
0001B01000
0001704000
0000748000
00047FC000
0004785100
002FF81200
00603C0300
00803D1B40
02403E9000
0B00740000
FFC1400000
ENDCHAR
STARTCHAR Ccedilla
ENCODING 199
SWIDTH 742 0
DWIDTH 10 0
BBX 11 18 0 -6
BITMAP
000010
000050
06FED0
1E42D0
780060
B40010
F40000
F40000
F40004
B80010
7D0020
1F4190
06FE40
001000
002800
000D00
004900
007800
ENDCHAR
STARTCHAR Egrave
ENCODING 200
SWIDTH 557 0
DWIDTH 8 0
BBX 8 16 0 -2
BITMAP
2400
1C00
0500
55AC
7D04
2D00
1D00
1D10
1FD0
0D50
0D00
0E00
0A01
0A06
BFFE
0054
ENDCHAR
STARTCHAR Eacute
ENCODING 201
SWIDTH 557 0
DWIDTH 8 0
BBX 8 17 0 -2
BITMAP
0050
0080
0140
0000
55AC
7D04
2D00
1D00
1D10
1FD0
0D50
0D00
0E00
0A01
0A06
BFFE
0054
ENDCHAR
STARTCHAR Ecircumflex
ENCODING 202
SWIDTH 557 0
DWIDTH 8 0
BBX 8 17 0 -2
BITMAP
0240
05A0
1428
0000
55AC
7D04
2D00
1D00
1D10
1FD0
0D50
0D00
0E00
0A01
0A06
BFFE
0054
ENDCHAR
STARTCHAR Edieresis
ENCODING 203
SWIDTH 557 0
DWIDTH 8 0
BBX 8 16 0 -2
BITMAP
0DA0
0DA0
0000
55AC
7D04
2D00
1D00
1D10
1FD0
0D50
0D00
0E00
0A01
0A06
BFFE
0054
ENDCHAR
STARTCHAR Igrave
ENCODING 204
SWIDTH 438 0
DWIDTH 6 0
BBX 8 18 -1 -3
BITMAP
0900
0700
0180
0000
2ABE
0BE0
03C0
0380
0380
0340
0340
0340
0340
0300
0300
0340
1FE0
6400
ENDCHAR
STARTCHAR Iacute
ENCODING 205
SWIDTH 438 0
DWIDTH 6 0
BBX 8 18 -1 -3
BITMAP
0024
0020
0050
0000
2ABE
0BE0
03C0
0380
0380
0340
0340
0340
0340
0300
0300
0340
1FE0
6400
ENDCHAR
STARTCHAR Icircumflex
ENCODING 206
SWIDTH 438 0
DWIDTH 6 0
BBX 8 18 -1 -3
BITMAP
0080
0274
041C
0000
2ABE
0BE0
03C0
0380
0380
0340
0340
0340
0340
0300
0300
0340
1FE0
6400
ENDCHAR
STARTCHAR Idieresis
ENCODING 207
SWIDTH 438 0
DWIDTH 6 0
BBX 8 18 -1 -3
BITMAP
0B30
0A30
0000
0000
2ABE
0BE0
03C0
0380
0380
0340
0340
0340
0340
0300
0300
0340
1FE0
6400
ENDCHAR
STARTCHAR Eth
ENCODING 208
SWIDTH 730 0
DWIDTH 10 0
BBX 11 12 0 -3
BITMAP
6AFE40
1E0BD0
0A02F0
0A01F4
0A00F4
6F81F4
0A01F0
0E02D0
0F0B40
1FE400
640000
400000
ENDCHAR
STARTCHAR Ntilde
ENCODING 209
SWIDTH 799 0
DWIDTH 11 0
BBX 11 16 0 -3
BITMAP
003940
004B80
000004
FF03F8
1FC0A0
0BF050
08F850
047E50
041FD0
040BD0
0402C0
040080
080000
1C0000
BE4000
014000
ENDCHAR
STARTCHAR Ograve
ENCODING 210
SWIDTH 747 0
DWIDTH 10 0
BBX 11 15 0 0
BITMAP
060000
034000
008000
000000
000000
06F900
2D0BC0
7401E0
B000F0
F000B4
F000B4
B000B0
7800E0
2E06C0
06FE00
ENDCHAR
STARTCHAR Oacute
ENCODING 211
SWIDTH 747 0
DWIDTH 10 0
BBX 11 15 0 0
BITMAP
002400
002000
004000
000000
000000
06F900
2D0BC0
7401E0
B000F0
F000B4
F000B4
B000B0
7800E0
2E06C0
06FE00
ENDCHAR
STARTCHAR Ocircumflex
ENCODING 212
SWIDTH 747 0
DWIDTH 10 0
BBX 11 14 0 0
BITMAP
009000
017800
050900
000000
06F900
2D0BC0
7401E0
B000F0
F000B4
F000B4
B000B0
7800E0
2E06C0
06FE00
ENDCHAR
STARTCHAR Otilde
ENCODING 213
SWIDTH 747 0
DWIDTH 10 0
BBX 11 14 0 0
BITMAP
02D100
016D00
000000
000000
06F900
2D0BC0
7401E0
B000F0
F000B4
F000B4
B000B0
7800E0
2E06C0
06FE00
ENDCHAR
STARTCHAR Odieresis
ENCODING 214
SWIDTH 747 0
DWIDTH 10 0
BBX 11 14 0 0
BITMAP
029C00
029C00
000000
000000
06F900
2D0BC0
7401E0
B000F0
F000B4
F000B4
B000B0
7800E0
2E06C0
06FE00
ENDCHAR
STARTCHAR multiply
ENCODING 215
SWIDTH 541 0
DWIDTH 8 0
BBX 6 8 1 0
BITMAP
0050
4080
2200
0D00
1540
2040
8000
4000
ENDCHAR
STARTCHAR Oslash
ENCODING 216
SWIDTH 747 0
DWIDTH 10 0
BBX 11 13 0 -1
BITMAP
000010
000010
06F980
2D07C0
7402E0
B008F0
F020B4
F090B4
B140B0
7900E0
2E06C0
16FE00
100000
ENDCHAR
STARTCHAR Ugrave
ENCODING 217
SWIDTH 690 0
DWIDTH 10 0
BBX 11 15 0 1
BITMAP
008000
00A000
002000
000000
001000
16E000
FF4000
2F1FE4
1E0280
1E0080
1E0040
0F0040
0F0140
078200
01F900
ENDCHAR
STARTCHAR Uacute
ENCODING 218
SWIDTH 690 0
DWIDTH 10 0
BBX 11 13 0 1
BITMAP
000080
000140
001200
16E000
FF4000
2F1FE4
1E0280
1E0080
1E0040
0F0040
0F0140
078200
01F900
ENDCHAR
STARTCHAR Ucircumflex
ENCODING 219
SWIDTH 690 0
DWIDTH 10 0
BBX 11 13 0 1
BITMAP
002400
005E00
015280
16E000
FF4000
2F1FE4
1E0280
1E0080
1E0040
0F0040
0F0140
078200
01F900
ENDCHAR
STARTCHAR Udieresis
ENCODING 220
SWIDTH 690 0
DWIDTH 10 0
BBX 11 14 0 1
BITMAP
00D600
00D600
000000
001000
16E000
FF4000
2F1FE4
1E0280
1E0080
1E0040
0F0040
0F0140
078200
01F900
ENDCHAR
STARTCHAR Yacute
ENCODING 221
SWIDTH 796 0
DWIDTH 11 0
BBX 13 18 0 -2
BITMAP
00008000
00014000
00020000
00000000
01805000
BF407F40
1F002000
07C04000
01F54000
007D0000
002C0000
001C0000
001C0000
001C0000
002D0000
003D0000
02FF0000
00054000
ENDCHAR
STARTCHAR Thorn
ENCODING 222
SWIDTH 479 0
DWIDTH 7 0
BBX 7 14 0 -1
BITMAP
7F40
2C00
1C00
1FE0
1878
183C
1878
1FE0
1800
1800
2800
2800
2C00
7E00
ENDCHAR
STARTCHAR germandbls
ENCODING 223
SWIDTH 591 0
DWIDTH 8 0
BBX 8 15 0 -2
BITMAP
2E00
9280
81C0
8180
C140
8100
9BE0
A1BC
702E
300B
3407
2807
2DD6
39F8
4000
ENDCHAR
STARTCHAR agrave
ENCODING 224
SWIDTH 527 0
DWIDTH 7 0
BBX 8 14 0 -1
BITMAP
6000
3400
0800
0000
1F40
21D0
34E0
28A0
00B0
2FF0
A0B4
A0B4
7E39
002D
ENDCHAR
STARTCHAR aacute
ENCODING 225
SWIDTH 527 0
DWIDTH 7 0
BBX 8 14 0 -1
BITMAP
0080
0140
0200
0000
1F40
21D0
34E0
28A0
00B0
2FF0
A0B4
A0B4
7E39
002D
ENDCHAR
STARTCHAR acircumflex
ENCODING 226
SWIDTH 527 0
DWIDTH 7 0
BBX 8 14 0 -1
BITMAP
0200
09D0
1070
0000
1F40
21D0
34E0
28A0
00B0
2FF0
A0B4
A0B4
7E39
002D
ENDCHAR
STARTCHAR atilde
ENCODING 227
SWIDTH 527 0
DWIDTH 7 0
BBX 8 12 0 -1
BITMAP
1E50
12E0
1F40
21D0
34E0
28A0
00B0
2FF0
A0B4
A0B4
7E39
002D
ENDCHAR
STARTCHAR adieresis
ENCODING 228
SWIDTH 527 0
DWIDTH 7 0
BBX 8 13 0 -1
BITMAP
1800
1A40
0000
1F40
21D0
34E0
28A0
00B0
2FF0
A0B4
A0B4
7E39
002D
ENDCHAR
STARTCHAR aring
ENCODING 229
SWIDTH 527 0
DWIDTH 7 0
BBX 8 14 0 -1
BITMAP
0B40
0880
0880
0B40
1F40
21D0
34E0
28A0
00B0
2FF0
A0B4
A0B4
7E39
002D
ENDCHAR
STARTCHAR ae
ENCODING 230
SWIDTH 700 0
DWIDTH 10 0
BBX 10 9 0 -1
BITMAP
001F80
2D51C0
5380C0
628680
1FFE00
768010
92C020
91F450
7C2F40
ENDCHAR
STARTCHAR ccedilla
ENCODING 231
SWIDTH 437 0
DWIDTH 6 0
BBX 6 12 0 -3
BITMAP
0B80
22E0
61D0
9000
9010
A020
7460
1F80
0100
0280
05C0
0B40
ENDCHAR
STARTCHAR egrave
ENCODING 232
SWIDTH 434 0
DWIDTH 6 0
BBX 6 12 0 1
BITMAP
3000
1800
0500
0000
0000
1BD0
34A0
B0A0
BF80
B010
7820
1B90
ENDCHAR
STARTCHAR eacute
ENCODING 233
SWIDTH 434 0
DWIDTH 6 0
BBX 6 11 0 1
BITMAP
0080
0140
0200
0000
1BD0
34A0
B0A0
BF80
B010
7820
1B90
ENDCHAR
STARTCHAR ecircumflex
ENCODING 234
SWIDTH 434 0
DWIDTH 6 0
BBX 6 12 0 1
BITMAP
0600
0A90
1060
0000
0000
1BD0
34A0
B0A0
BF80
B010
7820
1B90
ENDCHAR
STARTCHAR edieresis
ENCODING 235
SWIDTH 434 0
DWIDTH 6 0
BBX 6 10 0 1
BITMAP
0C00
0D80
0000
1BD0
34A0
B0A0
BF80
B010
7820
1B90
ENDCHAR
STARTCHAR igrave
ENCODING 236
SWIDTH 301 0
DWIDTH 4 0
BBX 5 12 -1 1
BITMAP
6000
2400
0800
0000
2F00
0B00
0B00
0B00
0A00
0A00
0A00
2FC0
ENDCHAR
STARTCHAR iacute
ENCODING 237
SWIDTH 301 0
DWIDTH 4 0
BBX 4 12 0 1
BITMAP
05
08
14
00
BC
2C
2C
2C
28
28
28
BF
ENDCHAR
STARTCHAR icircumflex
ENCODING 238
SWIDTH 301 0
DWIDTH 4 0
BBX 5 12 0 1
BITMAP
1800
6A00
4280
0000
BC00
2C00
2C00
2C00
2800
2800
2800
BF00
ENDCHAR
STARTCHAR idieresis
ENCODING 239
SWIDTH 301 0
DWIDTH 4 0
BBX 4 11 0 1
BITMAP
70
76
00
BC
2C
2C
2C
28
28
28
BF
ENDCHAR
STARTCHAR eth
ENCODING 240
SWIDTH 476 0
DWIDTH 7 0
BBX 8 12 -1 -1
BITMAP
0010
2F80
91B0
0128
001C
000D
06ED
0D1D
1C0D
1D09
0B48
02F4
ENDCHAR
STARTCHAR ntilde
ENCODING 241
SWIDTH 584 0
DWIDTH 8 0
BBX 8 12 0 -1
BITMAP
02D1
016D
0400
78B8
291D
1D0E
0D0E
0D0D
090D
090D
2FBD
0006
ENDCHAR
STARTCHAR ograve
ENCODING 242
SWIDTH 400 0
DWIDTH 6 0
BBX 10 11 0 2
BITMAP
0001C0
6000D0
240050
080080
000140
001900
2AE400
B18000
A1D000
A2D000
2F4000
ENDCHAR
STARTCHAR oacute
ENCODING 243
SWIDTH 400 0
DWIDTH 6 0
BBX 10 11 0 2
BITMAP
0001C0
0080D0
024050
020080
000140
001900
2AE400
B18000
A1D000
A2D000
2F4000
ENDCHAR
STARTCHAR ocircumflex
ENCODING 244
SWIDTH 400 0
DWIDTH 6 0
BBX 10 11 0 2
BITMAP
0001C0
0600D0
1A8050
10A080
000140
001900
2AE400
B18000
A1D000
A2D000
2F4000
ENDCHAR
STARTCHAR otilde
ENCODING 245
SWIDTH 400 0
DWIDTH 6 0
BBX 10 11 0 2
BITMAP
0001C0
0000D0
000050
1E1080
12E140
001900
2AE400
B18000
A1D000
A2D000
2F4000
ENDCHAR
STARTCHAR odieresis
ENCODING 246
SWIDTH 400 0
DWIDTH 6 0
BBX 10 11 0 2
BITMAP
0001C0
0000D0
000050
1C0080
1D8140
001900
2AE400
B18000
A1D000
A2D000
2F4000
ENDCHAR
STARTCHAR divide
ENCODING 247
SWIDTH 592 0
DWIDTH 8 0
BBX 8 6 0 2
BITMAP
0240
0000
0000
7FFD
0280
0240
ENDCHAR
STARTCHAR oslash
ENCODING 248
SWIDTH 396 0
DWIDTH 6 0
BBX 6 8 0 0
BITMAP
0100
2F40
A6C0
98D0
B6C0
2E40
2000
2000
ENDCHAR
STARTCHAR ugrave
ENCODING 249
SWIDTH 744 0
DWIDTH 10 0
BBX 11 12 0 0
BITMAP
034000
018000
005000
000000
000000
183F00
BC0740
0D0340
0E0380
0A06F4
074540
02E000
ENDCHAR
STARTCHAR uacute
ENCODING 250
SWIDTH 744 0
DWIDTH 10 0
BBX 11 12 0 0
BITMAP
002000
006000
004000
000000
000000
183F00
BC0740
0D0340
0E0380
0A06F4
074540
02E000
ENDCHAR
STARTCHAR ucircumflex
ENCODING 251
SWIDTH 744 0
DWIDTH 10 0
BBX 11 11 0 0
BITMAP
008000
027400
041C00
000000
183F00
BC0740
0D0340
0E0380
0A06F4
074540
02E000
ENDCHAR
STARTCHAR udieresis
ENCODING 252
SWIDTH 744 0
DWIDTH 10 0
BBX 11 10 0 0
BITMAP
018000
01A400
000000
183F00
BC0740
0D0340
0E0380
0A06F4
074540
02E000
ENDCHAR
STARTCHAR yacute
ENCODING 253
SWIDTH 659 0
DWIDTH 9 0
BBX 9 17 0 -6
BITMAP
000800
001400
002000
000000
020040
1D2FC0
BC0B40
2C0740
1D0740
0E0B00
07E700
000600
000900
0B4800
175800
147000
0B9000
ENDCHAR
STARTCHAR thorn
ENCODING 254
SWIDTH 514 0
DWIDTH 7 0
BBX 8 21 -1 -9
BITMAP
0600
BC00
1C00
1C00
1C00
0C00
0EE4
0D2D
0D1E
0D0F
0D0F
0E1E
0EB8
0E00
0E00
0E00
0E00
0E00
0F00
1F40
7FE0
ENDCHAR
STARTCHAR ydieresis
ENCODING 255
SWIDTH 659 0
DWIDTH 9 0
BBX 9 16 0 -6
BITMAP
00D000
00DC00
000000
020040
1D2FC0
BC0B40
2C0740
1D0740
0E0B00
07E700
000600
000900
0B4800
175800
147000
0B9000
ENDCHAR
STARTCHAR dotlessi
ENCODING 305
SWIDTH 301 0
DWIDTH 4 0
BBX 4 8 0 1
BITMAP
BC
2C
2C
2C
28
28
28
BF
ENDCHAR
STARTCHAR OE
ENCODING 338
SWIDTH 1132 0
DWIDTH 16 0
BBX 16 14 0 -2
BITMAP
00000060
06F9BFB4
2D07B804
7400F800
B0007800
F0003810
F4003850
B8003E90
7D007810
1F41BC01
06FD3C02
00003C1A
00007FFE
00019400
ENDCHAR
STARTCHAR oe
ENCODING 339
SWIDTH 798 0
DWIDTH 11 0
BBX 11 6 0 1
BITMAP
2F82E0
61ED30
A07FE4
B03C04
786E08
1F8BE0
ENDCHAR
STARTCHAR circumflex
ENCODING 710
SWIDTH 483 0
DWIDTH 7 0
BBX 5 3 1 10
BITMAP
0800
2740
41C0
ENDCHAR
STARTCHAR caron
ENCODING 711
SWIDTH 428 0
DWIDTH 6 0
BBX 4 4 1 10
BITMAP
01
85
38
20
ENDCHAR
STARTCHAR ring
ENCODING 730
SWIDTH 330 0
DWIDTH 5 0
BBX 4 4 0 11
BITMAP
2D
62
62
2D
ENDCHAR
STARTCHAR tilde
ENCODING 732
SWIDTH 433 0
DWIDTH 6 0
BBX 6 2 0 10
BITMAP
2D10
47C0
ENDCHAR
STARTCHAR mu.dup1
ENCODING 956
SWIDTH 634 0
DWIDTH 9 0
BBX 9 12 0 -5
BITMAP
700000
603400
702400
742800
787840
779C40
700740
700000
740000
740000
340000
380000
ENDCHAR
STARTCHAR endash
ENCODING 8211
SWIDTH 436 0
DWIDTH 6 0
BBX 5 1 1 3
BITMAP
BF40
ENDCHAR
STARTCHAR emdash
ENCODING 8212
SWIDTH 651 0
DWIDTH 9 0
BBX 8 2 1 2
BITMAP
16BD
5500
ENDCHAR
STARTCHAR quoteleft
ENCODING 8216
SWIDTH 287 0
DWIDTH 4 0
BBX 3 5 0 7
BITMAP
04
24
38
7C
38
ENDCHAR
STARTCHAR quoteright
ENCODING 8217
SWIDTH 291 0
DWIDTH 4 0
BBX 4 5 0 6
BITMAP
38
7D
1D
08
14
ENDCHAR
STARTCHAR quotesinglbase
ENCODING 8218
SWIDTH 272 0
DWIDTH 4 0
BBX 2 5 1 -3
BITMAP
E0
F0
70
20
40
ENDCHAR
STARTCHAR quotedblleft
ENCODING 8220
SWIDTH 445 0
DWIDTH 6 0
BBX 6 5 0 6
BITMAP
0400
2440
35C0
7DD0
3800
ENDCHAR
STARTCHAR quotedblright
ENCODING 8221
SWIDTH 444 0
DWIDTH 6 0
BBX 5 5 1 7
BITMAP
E740
FB40
7340
2200
4400
ENDCHAR
STARTCHAR quotedblbase
ENCODING 8222
SWIDTH 482 0
DWIDTH 7 0
BBX 6 6 0 -4
BITMAP
3800
7DE0
1DF0
0860
0450
0040
ENDCHAR
STARTCHAR bullet
ENCODING 8226
SWIDTH 351 0
DWIDTH 5 0
BBX 4 3 0 4
BITMAP
2E
7F
2E
ENDCHAR
STARTCHAR guilsinglleft
ENCODING 8249
SWIDTH 465 0
DWIDTH 7 0
BBX 5 8 1 -1
BITMAP
0100
0800
2800
B000
7800
1D00
0200
0040
ENDCHAR
STARTCHAR guilsinglright
ENCODING 8250
SWIDTH 449 0
DWIDTH 6 0
BBX 5 9 1 -1
BITMAP
4000
8000
2000
1D00
0F40
2C00
7000
9000
4000
ENDCHAR
STARTCHAR fraction
ENCODING 8260
SWIDTH 406 0
DWIDTH 6 0
BBX 10 13 -2 0
BITMAP
000050
000080
000200
000500
001800
002000
008000
014000
020000
080000
140000
500000
800000
ENDCHAR
STARTCHAR foursuperior
ENCODING 8308
SWIDTH 473 0
DWIDTH 7 0
BBX 7 9 0 4
BITMAP
0100
0600
0A00
1700
1350
6FD0
0380
0FF4
0400
ENDCHAR
STARTCHAR Euro
ENCODING 8364
SWIDTH 799 0
DWIDTH 11 0
BBX 12 12 0 -1
BITMAP
000001
006F95
01E47C
078018
0B4004
0F5400
6F5400
2F4000
9F0010
0B4010
03D080
00BE40
ENDCHAR
STARTCHAR minus
ENCODING 8722
SWIDTH 436 0
DWIDTH 6 0
BBX 5 1 1 3
BITMAP
BF40
ENDCHAR
STARTCHAR f_f
ENCODING 64256
SWIDTH 467 0
DWIDTH 7 0
BBX 9 21 0 -5
BITMAP
02D000
04E000
042E00
149700
158F40
214E00
224000
264000
2BE400
7A4000
258000
25C000
28C000
28D000
1CB000
1CBD00
1D9000
1D0000
0E0000
1F4000
BFD000
ENDCHAR
STARTCHAR .notdef
ENCODING -1
SWIDTH 270 0
DWIDTH 4 0
BBX 4 9 0 0
BITMAP
7D
00
00
00
00
00
00
00
7D
ENDCHAR
STARTCHAR .null
ENCODING -1
SWIDTH 0 0
DWIDTH 0 0
BBX 1 1 0 0
BITMAP
00
ENDCHAR
STARTCHAR nonmarkingreturn
ENCODING -1
SWIDTH 270 0
DWIDTH 4 0
BBX 1 1 0 0
BITMAP
00
ENDCHAR
STARTCHAR dieresis.case
ENCODING -1
SWIDTH 393 0
DWIDTH 6 0
BBX 4 2 1 11
BITMAP
DA
DA
ENDCHAR
STARTCHAR o.cmp
ENCODING -1
SWIDTH 400 0
DWIDTH 6 0
BBX 10 11 0 2
BITMAP
0001C0
0000D0
000050
000080
000140
001900
2AE400
B18000
A1D000
A2D000
2F4000
ENDCHAR
STARTCHAR n_n
ENCODING -1
SWIDTH 1024 0
DWIDTH 14 0
BBX 14 9 0 -1
BITMAP
18B80000
BD1DF000
1D0E77D0
1D0E74A0
0D0D70A0
090D70E0
090DFFE0
2FBD4010
00020000
ENDCHAR
STARTCHAR a_a
ENCODING -1
SWIDTH 911 0
DWIDTH 13 0
BBX 14 9 0 0
BITMAP
0002E400
000A2C00
2E0A0C00
62400D00
614BED00
2FAB1D00
B5A95D00
B2DB9E10
7DBD0B80
ENDCHAR
STARTCHAR t_h
ENCODING -1
SWIDTH 854 0
DWIDTH 12 0
BBX 12 18 0 -3
BITMAP
001800
03F800
002800
012800
0B2800
BFFD00
0E2400
0D2400
1D36F4
1D391D
0D35CE
0E34CE
07B58E
01FE0D
00B81C
03FE2C
0001FD
000006
ENDCHAR
STARTCHAR s_s
ENCODING -1
SWIDTH 654 0
DWIDTH 9 0
BBX 9 13 0 -2
BITMAP
000040
0BAF80
0CB540
0C3040
062400
029C00
00DA00
407740
977380
69A2C0
0B8380
020B40
01BD00
ENDCHAR
STARTCHAR t_t
ENCODING -1
SWIDTH 569 0
DWIDTH 8 0
BBX 8 13 0 -1
BITMAP
00D0
05D4
1EF0
FFC0
2DC0
29C0
29C0
28CA
28A2
286D
1C00
0A2C
02F8
ENDCHAR
STARTCHAR e_e
ENCODING -1
SWIDTH 782 0
DWIDTH 11 0
BBX 11 8 0 0
BITMAP
1F4B80
71A860
E2B420
F97050
B03484
792E44
0BFE18
0006E0
ENDCHAR
STARTCHAR o_o
ENCODING -1
SWIDTH 751 0
DWIDTH 11 0
BBX 15 12 0 1
BITMAP
00000070
00000074
00000020
00000020
00000050
1B800640
386DF900
B0346000
A0747400
A074B000
74AF9000
1F800000
ENDCHAR
STARTCHAR l_l
ENCODING -1
SWIDTH 573 0
DWIDTH 8 0
BBX 9 14 -1 -2
BITMAP
191900
6EBD00
0E2D00
0E1D00
0E1D00
0E1D00
0E1D00
0E0D00
0E0D00
0E0E00
0E0F00
0E2FC0
BF0000
068000
ENDCHAR
STARTCHAR z_z
ENCODING -1
SWIDTH 875 0
DWIDTH 12 0
BBX 13 10 0 -1
BITMAP
01FF4000
00070000
3FEA0000
138C0000
07280000
0D345000
28BFD740
70000740
FFE90700
005AF900
ENDCHAR
STARTCHAR j_j
ENCODING -1
SWIDTH 577 0
DWIDTH 8 0
BBX 10 19 -2 -9
BITMAP
000E00
00AE00
00A100
001F80
07FBC0
00BAC0
0079D0
0038D0
0028A0
001CA0
001860
001860
2D1860
7D2460
903060
60A050
2FA080
007880
002E00
ENDCHAR
STARTCHAR f_b
ENCODING -1
SWIDTH 731 0
DWIDTH 10 0
BBX 11 18 -1 -2
BITMAP
00B800
018900
021A00
023D00
061A00
0A3E00
6F5A00
5A0600
0A0600
0A0600
0A0600
0B07F8
0B062C
0B062C
0B0FF8
0B5000
0BE000
140000
ENDCHAR
STARTCHAR f_k
ENCODING -1
SWIDTH 708 0
DWIDTH 10 0
BBX 10 16 0 -2
BITMAP
028000
2FF800
079D00
0AB800
1A8000
1A8000
768400
268780
258800
25F400
25E400
25D810
25CE20
35C7D0
B9D000
0BFC00
ENDCHAR
STARTCHAR f_h
ENCODING -1
SWIDTH 873 0
DWIDTH 12 0
BBX 14 18 -1 -2
BITMAP
00B80000
01490000
021A0000
023D4000
061B4000
063F4000
0BD30000
7E030000
0A030000
0A030000
0A077D00
0B074B00
0B070700
0B070700
0B0A0FD0
0B7F4400
0FE04000
14000000
ENDCHAR
ENDFONT
